<svg version="1.1" id="Layer_1" xmlns="http://www.w3.org/2000/svg" xmlns:xlink="http://www.w3.org/1999/xlink" x="0px" y="0px"
	 width="100%" viewBox="0 0 509 598" enable-background="new 0 0 509 598" xml:space="preserve">
<path fill="#B1B1B1" opacity="1.000000" stroke="none" 
	d="
M510.000000,477.000000 
	C510.000000,517.642761 510.000000,558.285583 510.000000,598.964172 
	C340.456909,598.964172 170.913803,598.964172 1.000000,598.964172 
	C1.000000,561.313232 1.000000,523.625305 1.311894,485.813965 
	C2.081335,484.700500 2.714823,483.753113 2.967513,482.713226 
	C4.463175,476.558044 5.273821,470.166077 7.409275,464.248718 
	C17.411755,436.531830 34.400208,413.796143 57.220943,395.212433 
	C82.124939,374.932220 110.622406,361.684082 141.273773,353.355347 
	C159.710754,348.345612 178.671326,344.788147 197.621979,342.283325 
	C214.903473,339.999176 232.479965,339.778778 249.944244,339.121826 
	C257.853851,338.824249 265.806396,339.675385 273.739716,339.999054 
	C281.993774,340.335815 290.276245,340.346802 298.495636,341.073334 
	C310.236725,342.111176 322.123291,342.769196 333.603333,345.209595 
	C352.765869,349.283020 372.054718,353.462524 390.564209,359.738892 
	C416.417633,368.505554 440.084534,381.706146 460.760254,400.049530 
	C475.732208,413.332550 488.270142,428.377930 496.902832,446.360748 
	C501.361938,455.649475 504.311981,465.660248 508.035492,475.309418 
	C508.309662,476.019806 509.327759,476.443176 510.000000,477.000000 
z"/>
<path fill="#000000" opacity="1.000000" stroke="none" 
	d="
M510.000000,476.531342 
	C509.327759,476.443176 508.309662,476.019806 508.035492,475.309418 
	C504.311981,465.660248 501.361938,455.649475 496.902832,446.360748 
	C488.270142,428.377930 475.732208,413.332550 460.760254,400.049530 
	C440.084534,381.706146 416.417633,368.505554 390.564209,359.738892 
	C372.054718,353.462524 352.765869,349.283020 333.603333,345.209595 
	C322.123291,342.769196 310.236725,342.111176 298.495636,341.073334 
	C290.276245,340.346802 281.993774,340.335815 273.739716,339.999054 
	C265.806396,339.675385 257.853851,338.824249 249.944244,339.121826 
	C232.479965,339.778778 214.903473,339.999176 197.621979,342.283325 
	C178.671326,344.788147 159.710754,348.345612 141.273773,353.355347 
	C110.622406,361.684082 82.124939,374.932220 57.220943,395.212433 
	C34.400208,413.796143 17.411755,436.531830 7.409275,464.248718 
	C5.273821,470.166077 4.463175,476.558044 2.967513,482.713226 
	C2.714823,483.753113 2.081335,484.700500 1.311894,485.345306 
	C1.000000,323.764069 1.000000,162.528122 1.000000,1.000000 
	C81.020660,1.000000 161.041672,1.000000 241.876282,1.339718 
	C241.347260,2.119332 240.034409,2.758070 238.656815,2.964355 
	C233.001556,3.811195 227.151596,3.897364 221.693878,5.415769 
	C208.748611,9.017305 196.114487,13.418186 184.140305,19.840714 
	C164.748062,30.242029 148.342102,43.946503 135.101761,61.438862 
	C119.874443,81.556290 109.655792,103.727882 105.752304,128.965622 
	C103.137711,145.870071 103.205353,162.639648 105.155807,179.398300 
	C107.023262,195.443817 112.243126,210.728485 119.779709,225.009537 
	C133.604813,251.206696 152.945831,272.186127 178.663025,287.428864 
	C201.859238,301.177307 226.844391,307.896729 253.510605,308.987518 
	C269.989777,309.661591 285.978455,306.478088 301.788910,302.044189 
	C319.033661,297.208069 334.936615,289.343781 348.774963,278.330017 
	C359.511902,269.784668 369.015900,259.491882 378.122742,249.143997 
	C391.188934,234.297195 399.446472,216.490311 404.697754,197.635574 
	C409.239990,181.326721 411.943909,164.515701 409.997681,147.375763 
	C408.961731,138.252258 408.814484,128.910339 406.668396,120.054176 
	C401.767639,99.830780 393.125641,81.180252 380.756378,64.277390 
	C369.274200,48.586693 355.363281,35.361431 339.007935,25.184528 
	C319.257629,12.895163 297.845001,4.453432 274.215576,2.916544 
	C273.438782,2.866019 272.736847,1.664821 272.000000,1.000003 
	C351.284698,1.000000 430.569427,1.000000 510.000000,1.000000 
	C510.000000,159.354202 510.000000,317.708435 510.000000,476.531342 
z"/>
<path fill="#B1B1B1" opacity="1.000000" stroke="none" 
	d="
M271.531342,1.000003 
	C272.736847,1.664821 273.438782,2.866019 274.215576,2.916544 
	C297.845001,4.453432 319.257629,12.895163 339.007935,25.184528 
	C355.363281,35.361431 369.274200,48.586693 380.756378,64.277390 
	C393.125641,81.180252 401.767639,99.830780 406.668396,120.054176 
	C408.814484,128.910339 408.961731,138.252258 409.997681,147.375763 
	C411.943909,164.515701 409.239990,181.326721 404.697754,197.635574 
	C399.446472,216.490311 391.188934,234.297195 378.122742,249.143997 
	C369.015900,259.491882 359.511902,269.784668 348.774963,278.330017 
	C334.936615,289.343781 319.033661,297.208069 301.788910,302.044189 
	C285.978455,306.478088 269.989777,309.661591 253.510605,308.987518 
	C226.844391,307.896729 201.859238,301.177307 178.663025,287.428864 
	C152.945831,272.186127 133.604813,251.206696 119.779709,225.009537 
	C112.243126,210.728485 107.023262,195.443817 105.155807,179.398300 
	C103.205353,162.639648 103.137711,145.870071 105.752304,128.965622 
	C109.655792,103.727882 119.874443,81.556290 135.101761,61.438862 
	C148.342102,43.946503 164.748062,30.242029 184.140305,19.840714 
	C196.114487,13.418186 208.748611,9.017305 221.693878,5.415769 
	C227.151596,3.897364 233.001556,3.811195 238.656815,2.964355 
	C240.034409,2.758070 241.347260,2.119332 242.344940,1.339718 
	C251.687561,1.000000 261.375122,1.000000 271.531342,1.000003 
z"/>
</svg>