<svg version="1.1" id="Layer_1" xmlns="http://www.w3.org/2000/svg" xmlns:xlink="http://www.w3.org/1999/xlink" x="0px" y="0px"
	 width="100%" viewBox="0 0 1024 1024" enable-background="new 0 0 1024 1024" xml:space="preserve">
<path fill="#000000" opacity="1.000000" stroke="none" 
	d="
M46.468658,1025.000000 
	C49.870377,1009.859802 53.746861,994.721130 57.609699,979.578979 
	C63.156208,957.836914 68.752541,936.107300 74.216316,914.344421 
	C79.355293,893.875305 84.317345,873.361938 89.416290,852.882751 
	C95.722351,827.555298 102.167130,802.262207 108.405411,776.918152 
	C113.411613,756.579651 118.115662,736.166931 123.105293,715.824219 
	C129.323746,690.471497 135.687653,665.154480 142.010895,639.827515 
	C143.864410,632.403442 145.764145,624.990540 147.702621,617.588257 
	C148.416748,614.861328 148.983566,611.815186 152.419617,611.213257 
	C156.057037,610.576050 157.165100,613.509460 158.564774,615.988770 
	C160.692551,619.757751 162.986664,623.434204 165.064163,627.229919 
	C168.218689,632.993408 170.100662,633.851196 177.224167,632.136780 
	C177.667526,624.449280 174.855667,617.250671 173.173904,609.876160 
	C172.693726,607.770508 171.830292,605.753113 171.333374,603.650269 
	C170.396698,599.686340 168.618423,597.838745 163.964203,598.438477 
	C158.364700,599.160095 154.186081,593.997375 155.315872,588.457703 
	C156.346146,583.405884 157.121124,578.167725 159.101471,573.472717 
	C162.861084,564.559326 159.282990,556.301575 157.413940,548.070496 
	C152.259140,525.369507 146.349518,502.841125 140.881989,480.209778 
	C130.445358,437.010101 120.176170,393.769897 109.707703,350.578003 
	C101.869011,318.236267 93.812035,285.947510 85.878693,253.628647 
	C72.434105,198.858047 59.029400,144.077667 45.568027,89.311188 
	C40.565147,68.957397 35.452366,48.630619 30.382240,28.293385 
	C29.940060,26.519703 29.453678,24.759521 30.411621,21.957476 
	C97.765076,46.109764 163.966888,72.923164 230.688522,98.262794 
	C232.535767,97.292732 232.475220,95.498123 232.851440,93.928841 
	C236.420593,79.042007 240.113205,64.182755 243.461517,49.246342 
	C244.352280,45.272701 245.835098,44.083733 249.552902,45.852985 
	C258.267181,49.999996 267.420349,53.229095 275.781128,58.102600 
	C280.344543,60.762630 280.294891,61.778572 276.905579,65.652466 
	C272.854828,70.282394 269.090515,75.114037 263.517151,78.202042 
	C260.342285,79.961143 259.462311,82.988670 261.401917,86.349930 
	C263.727203,90.379501 262.415161,93.273376 258.335602,94.558708 
	C254.419022,95.792702 252.131195,99.639854 247.994675,100.379433 
	C247.023804,100.553009 246.349091,101.568924 246.466705,102.696228 
	C246.658585,104.535370 248.262054,105.017647 249.617218,105.524040 
	C259.128967,109.078400 268.629822,112.668076 278.206207,116.041908 
	C292.802155,121.184151 307.506744,126.020424 322.074097,131.240860 
	C344.802673,139.386017 367.445251,147.770950 390.143860,156.000229 
	C400.938568,159.913803 411.684845,164.003174 422.638641,167.417480 
	C427.867950,169.047455 430.084229,172.301666 431.326477,177.133377 
	C438.947937,206.777435 446.602600,236.413193 454.344269,266.026062 
	C465.029572,306.898895 475.894989,347.724854 486.500153,388.618347 
	C492.423096,411.457123 498.163971,434.347809 503.555206,457.316406 
	C504.814178,462.680054 508.602264,463.980957 512.568787,465.350464 
	C549.842773,478.219788 587.235718,490.751099 624.395325,503.940399 
	C632.003601,506.640839 638.321533,506.681915 645.117310,502.473267 
	C654.830322,496.458008 665.626831,493.698975 677.004028,493.826569 
	C694.329956,494.020813 708.987061,500.624756 720.987000,513.119324 
	C722.022888,514.197876 723.004395,515.328735 724.046082,516.401428 
	C724.254578,516.616272 724.622009,516.676697 725.302002,516.981018 
	C730.796997,511.209503 736.477051,505.460602 743.645996,501.345978 
	C750.589172,497.360962 757.621277,493.643433 766.044373,490.613159 
	C756.878906,489.849091 748.637573,490.790192 740.442200,489.364441 
	C719.479858,485.717590 704.075867,468.176117 703.969543,446.848358 
	C703.807556,414.351715 703.799927,381.853271 703.941040,349.356537 
	C704.025818,329.826630 716.335083,312.755341 734.692627,306.143768 
	C739.762085,304.317963 745.108643,303.975616 750.433838,303.953918 
	C771.265503,303.869049 792.098328,303.779846 812.928711,303.945557 
	C817.442566,303.981506 819.465393,302.644165 818.900330,297.988098 
	C818.287109,292.934662 820.210083,287.746918 815.456055,283.133362 
	C809.542786,277.394836 810.618469,269.836884 816.925049,264.394440 
	C822.141418,259.892761 829.155273,260.373962 833.878357,265.557526 
	C838.611145,270.751923 838.222961,279.572754 833.038940,284.631775 
	C829.851624,287.742249 827.725830,298.159210 829.491577,301.982849 
	C830.623779,304.434662 832.888916,303.719208 834.754272,303.722290 
	C856.585938,303.758362 878.418030,303.659943 900.249573,303.725586 
	C915.468140,303.771362 928.106873,309.876251 937.883301,321.313568 
	C944.241516,328.751923 947.132202,338.014374 947.207458,347.681702 
	C947.463074,380.510834 947.459900,413.344116 947.256714,446.173981 
	C947.100769,471.371277 927.881531,490.158722 902.612366,490.295563 
	C894.833679,490.337677 887.054504,490.302094 879.269470,490.302094 
	C879.269470,491.341064 879.158813,491.876678 879.285278,491.940247 
	C886.939148,495.785400 894.232178,501.260620 903.268982,500.462891 
	C909.743713,499.891327 915.855591,500.599182 921.965210,502.267609 
	C941.428162,507.582458 956.667480,524.966675 959.170776,544.915283 
	C960.381287,554.561279 962.873108,563.697205 966.934753,572.601135 
	C973.423767,586.826416 978.760132,601.584351 985.425110,615.720398 
	C990.988037,627.518982 996.228943,639.329529 998.559021,652.209351 
	C1000.837036,664.801453 1003.029419,677.417480 1003.812805,690.221619 
	C1003.833069,690.553589 1004.016418,690.996643 1003.867371,691.200317 
	C998.769531,698.165710 1003.679077,704.167664 1005.800049,710.356812 
	C1008.547913,718.375427 1005.839722,725.057007 1001.112915,731.286316 
	C988.024597,748.534851 973.278198,764.399780 959.450073,781.032959 
	C942.425110,801.511353 925.085571,821.727905 907.989319,842.147461 
	C896.567871,855.789062 885.961426,870.181763 873.757935,883.071594 
	C867.398438,889.788635 867.170593,896.349304 868.435425,904.113281 
	C871.430054,922.494324 874.139465,940.917786 876.038696,959.444763 
	C876.358582,962.565735 877.442688,964.670959 879.948486,966.448486 
	C892.161621,975.112244 901.126282,986.235596 904.433228,1001.091064 
	C906.124084,1008.686768 905.709534,1016.664185 907.963745,1024.611084 
	C901.645569,1025.000000 895.291199,1025.000000 888.403320,1024.576660 
	C887.923279,1023.323792 887.936462,1022.489319 888.035950,1021.665405 
	C890.385864,1002.212341 883.062317,987.108582 866.468079,979.147766 
	C850.061218,971.276794 833.279175,970.473755 816.068542,976.050598 
	C800.262451,981.172302 784.311707,995.725769 785.282043,1015.599304 
	C785.495056,1019.962341 786.867859,1021.748718 791.385864,1022.034729 
	C800.861328,1022.634521 810.336731,1022.515808 819.809082,1022.788757 
	C828.233154,1023.031433 836.785217,1022.231323 845.000000,1025.000000 
	C803.645752,1025.000000 762.291565,1025.000000 720.572266,1024.656982 
	C722.001221,1021.805664 723.033508,1019.156006 722.620300,1015.932251 
	C719.951843,995.110657 728.956360,979.872131 745.752930,968.612854 
	C749.123108,966.353638 752.097412,964.371216 750.829712,959.388184 
	C754.442749,959.734436 755.357910,957.755066 755.668457,954.974976 
	C757.310425,940.274963 759.187439,925.599548 760.686157,910.885437 
	C763.483765,883.418457 766.970520,856.043335 771.290161,828.777832 
	C771.736572,825.959839 770.877136,824.515564 768.709656,823.012207 
	C765.302917,820.649292 761.690674,818.350586 758.927795,815.327881 
	C734.180359,788.252991 742.684265,746.661865 775.999878,731.202698 
	C778.973633,729.822876 781.985107,728.524414 785.053101,727.155151 
	C783.921448,724.753967 781.829468,723.934998 780.034546,722.851196 
	C766.577271,714.725647 756.773193,703.430664 751.467590,688.652649 
	C740.218628,657.320496 732.519592,624.904480 722.773254,593.109802 
	C720.659119,586.213013 719.129456,579.126831 716.202148,572.431885 
	C714.914124,572.929871 714.247437,573.087891 713.687256,573.423706 
	C712.259399,574.279663 710.870667,575.202332 709.481079,576.120667 
	C697.081116,584.315491 683.571106,586.889526 668.949890,584.419617 
	C657.721985,582.522949 648.213074,576.570007 638.041809,572.070068 
	C604.715271,557.325684 570.468628,544.757263 537.206970,529.832458 
	C534.058167,528.419495 530.584656,526.849060 527.027527,527.823059 
	C526.088318,529.483948 526.650940,530.754761 527.004028,532.023254 
	C531.728394,548.997986 536.442017,565.975586 541.193909,582.942627 
	C546.082642,600.398438 551.019348,617.840881 555.913940,635.295105 
	C557.013306,639.215454 555.913635,641.250183 551.390442,641.178345 
	C541.228333,641.016907 531.061523,641.133057 520.896729,641.163452 
	C509.761993,641.196655 509.761902,641.210022 512.721680,651.562927 
	C512.767395,651.722961 512.832153,651.877625 512.878052,652.037659 
	C521.781006,683.040527 530.573547,714.075562 539.614380,745.038147 
	C549.634888,779.355835 559.723938,813.655334 570.077393,847.873657 
	C579.513611,879.060425 588.042053,910.508667 597.773132,941.615112 
	C606.413025,969.233582 613.966797,997.191772 622.000000,1025.000000 
	C607.312439,1025.000000 592.624878,1025.000000 577.412292,1024.605591 
	C572.472961,1009.219604 568.046509,994.231628 563.647034,979.235718 
	C556.483032,954.816650 549.390564,930.376526 542.167542,905.974915 
	C535.038757,881.891846 527.819214,857.835388 520.573730,833.787170 
	C516.447388,820.091675 512.140503,806.450623 508.019409,792.753662 
	C506.712097,788.408569 504.814972,786.656311 499.711731,787.859924 
	C484.334167,791.486572 468.569122,793.098389 452.920319,794.955383 
	C427.999603,797.912781 403.286621,802.170715 378.459320,805.687744 
	C367.136841,807.291687 367.157715,807.966431 369.732941,819.054321 
	C374.957306,841.548218 380.298126,864.022461 385.012817,886.625427 
	C390.920441,914.947876 398.603058,942.839600 404.881500,971.071899 
	C408.880585,989.054688 413.803314,1006.832642 417.000000,1025.000000 
	C400.979095,1025.000000 384.958221,1025.000000 368.394257,1024.604492 
	C364.644531,1010.278137 361.481628,996.337097 358.221405,982.418823 
	C352.802124,959.283142 347.241364,936.180359 341.886383,913.029907 
	C336.235809,888.601562 330.870392,864.106995 325.170898,839.690308 
	C319.204315,814.129333 312.794861,788.670959 306.927216,763.087891 
	C298.011932,724.217285 289.365356,685.284790 280.705109,646.356262 
	C279.872467,642.613403 278.142151,641.239258 274.236816,641.260132 
	C248.084000,641.400269 221.929413,641.409851 195.777100,641.223328 
	C191.675049,641.194092 190.275162,642.969177 189.481522,646.513428 
	C186.976318,657.701111 184.363968,668.866211 181.656143,680.006775 
	C175.456757,705.512207 169.178879,730.998596 162.927795,756.491455 
	C157.701065,777.806885 152.527054,799.135498 147.220383,820.431030 
	C141.353958,843.972900 135.334381,867.476562 129.433380,891.009949 
	C121.472794,922.757019 113.557701,954.515442 105.631340,986.271057 
	C102.409729,999.177917 99.209801,1012.090210 96.000000,1025.000000 
	C79.645775,1025.000000 63.291546,1025.000000 46.468658,1025.000000 
M855.443909,703.012817 
	C863.521423,696.320435 868.732849,687.556213 872.001404,677.875305 
	C879.081116,656.906189 885.107544,635.572205 892.557190,614.742310 
	C895.246033,607.223999 893.799194,602.613037 888.243042,597.821716 
	C878.768982,589.651733 871.739258,579.553162 866.751404,568.122498 
	C864.355347,562.631409 863.153381,556.858765 863.430542,550.682617 
	C864.004272,537.897217 869.363281,527.265747 877.369873,517.748596 
	C880.031799,514.584412 879.808411,512.868896 876.249695,510.358215 
	C867.743286,504.356964 858.091858,501.089630 848.315796,498.580292 
	C835.688843,495.339203 822.935303,491.517120 809.571228,494.331696 
	C788.430969,498.783997 768.146179,505.509705 750.407715,518.229858 
	C733.612305,530.273621 728.479126,546.500793 734.625671,566.086060 
	C734.875000,566.880554 735.143799,567.670166 735.359680,568.473816 
	C743.993408,600.603821 753.554382,632.472778 763.851746,664.091431 
	C767.075928,673.991455 769.153503,684.424500 775.940796,693.290405 
	C785.837280,706.217590 798.621094,712.944519 814.263550,714.893250 
	C829.317749,716.768677 842.939819,712.948425 855.443909,703.012817 
M761.501953,322.044037 
	C756.671021,322.119141 751.820068,321.940216 747.013000,322.318573 
	C734.272766,323.321350 723.174194,334.980804 723.138611,347.503021 
	C723.045227,380.333618 723.514343,413.172424 722.896301,445.991730 
	C722.634949,459.872803 734.018799,469.292236 743.849426,471.732758 
	C752.683044,473.925720 761.767944,472.593201 770.729980,472.622162 
	C813.560303,472.760620 856.391541,472.610016 899.221924,472.732056 
	C914.100342,472.774475 928.640381,461.821381 928.210327,444.606476 
	C927.428284,413.300476 927.522705,381.952301 928.147095,350.639587 
	C928.482788,333.807617 913.662781,321.857239 899.491394,321.974457 
	C853.830872,322.352142 808.164917,322.070892 761.501953,322.044037 
M451.536377,755.799744 
	C466.032532,754.324219 480.642303,753.676697 494.761444,750.222168 
	C495.451477,747.981873 494.671478,746.285339 494.123535,744.561768 
	C492.358582,739.009888 490.451752,733.499023 488.841522,727.902771 
	C481.533600,702.504517 474.395386,677.057129 467.011017,651.681213 
	C464.052094,641.513184 466.291748,641.178162 452.726135,641.209961 
	C415.897156,641.296265 379.067047,641.472778 342.239471,641.257324 
	C329.418549,641.182312 329.717682,642.490112 331.675751,655.160461 
	C331.726044,655.485901 331.889984,655.791992 331.970184,656.114807 
	C338.826660,683.711731 345.350494,711.385193 351.320740,739.189758 
	C352.785797,746.012756 354.567810,752.777100 356.468384,759.493591 
	C357.619934,763.563049 359.865112,765.641052 364.907867,764.988770 
	C378.901764,763.178772 392.992188,762.127563 407.031677,760.654480 
	C421.572998,759.128540 436.099335,757.459412 451.536377,755.799744 
M910.513916,644.957520 
	C909.306519,642.138855 908.099121,639.320190 906.781982,636.245422 
	C904.748169,638.639221 904.019287,640.986816 903.257202,643.375549 
	C898.659546,657.786804 894.218811,672.254822 889.259033,686.541931 
	C883.757385,702.389709 873.410950,714.365112 858.939819,722.922363 
	C853.247009,726.288757 847.202148,728.791565 840.348206,731.036438 
	C844.750732,735.744934 847.768982,740.493042 848.926025,745.851318 
	C850.317749,752.296936 853.953918,756.934143 858.566345,761.134705 
	C863.258301,765.407776 867.198669,770.352966 871.254456,775.197327 
	C872.899963,777.162659 874.564392,779.112305 876.489563,781.387573 
	C878.379333,778.966797 879.898132,777.212891 881.207520,775.314575 
	C896.219910,753.551270 911.457581,731.941345 925.780334,709.707703 
	C927.242554,707.437988 927.635315,705.441345 927.123230,702.735352 
	C925.148315,692.299683 922.032959,682.062439 921.580322,671.343506 
	C921.506775,669.601379 920.604248,667.847961 919.882629,666.187622 
	C916.901123,659.327698 913.841919,652.501587 910.513916,644.957520 
M417.123779,480.346893 
	C421.075897,483.660919 425.120300,486.872223 428.956238,490.315674 
	C433.491974,494.387329 436.154053,494.965576 440.502655,490.819672 
	C450.028717,481.737885 456.545807,470.860840 457.636963,457.410614 
	C458.653290,444.882324 452.197601,435.228546 444.263245,426.763672 
	C431.003937,412.617798 417.510529,412.178741 402.115387,424.560303 
	C399.407776,426.737823 396.568176,427.433075 393.289459,426.142273 
	C387.100159,423.705688 380.835419,421.446777 374.724976,418.827148 
	C367.077606,415.548553 359.552917,411.983734 351.977966,408.536530 
	C349.795807,407.543457 348.225128,407.926727 347.108185,410.251678 
	C346.126556,412.294861 346.981354,413.379852 348.648865,414.274261 
	C361.408325,421.118378 373.981659,428.418671 387.524994,433.573792 
	C392.988739,435.653473 394.929199,438.788971 395.391876,444.171295 
	C396.701996,459.412445 404.507233,470.958710 417.123779,480.346893 
M952.821838,589.592102 
	C948.812683,580.454712 944.783936,571.325928 940.801636,562.176819 
	C938.366394,556.581970 937.524536,556.177429 932.671021,560.245300 
	C924.490784,567.101257 915.506592,571.479797 904.585938,571.428711 
	C900.704468,571.410583 899.997437,573.282104 901.641724,576.979492 
	C912.378540,601.122192 923.370850,625.165100 931.848999,650.245422 
	C932.664062,652.656677 933.566956,655.181091 935.813110,657.547913 
	C948.429749,647.346680 963.229370,647.045105 979.644409,648.928101 
	C969.494873,628.760437 961.341492,609.508484 952.821838,589.592102 
M828.702454,788.129700 
	C835.301819,768.854126 817.664917,745.025024 795.566467,745.431580 
	C780.299072,745.712524 765.523376,758.927490 763.371277,773.436157 
	C760.783142,790.884155 769.384766,805.174133 785.952576,810.892212 
	C791.612610,812.845642 797.089600,814.519714 803.370789,812.479370 
	C815.599243,808.507019 824.247437,801.133667 828.702454,788.129700 
M797.517090,918.069702 
	C797.734436,918.686462 797.951782,919.303284 798.593994,921.125732 
	C798.219421,916.027161 797.521729,912.156982 797.770386,908.348572 
	C798.024109,904.462097 795.769409,900.670898 797.356506,896.476379 
	C803.970398,908.529907 806.556702,928.382874 802.196533,932.572266 
	C800.434204,932.213074 800.966064,929.854675 799.221191,929.081421 
	C800.898071,938.021851 801.389343,946.811279 802.146240,955.573059 
	C802.259094,956.879639 802.119690,958.264709 803.145935,959.334351 
	C805.279846,961.558655 813.102173,961.792419 817.434326,959.834900 
	C821.563477,957.969177 819.181641,954.789856 819.063354,952.075317 
	C819.012756,950.914490 818.873108,949.750366 818.677795,948.604187 
	C817.762329,943.233398 818.236877,936.921326 815.474426,932.768616 
	C812.737793,928.654785 812.338806,925.166504 812.595459,920.890991 
	C812.734436,918.575623 812.620239,916.245178 812.620239,912.687012 
	C809.530762,918.834778 810.813049,924.875977 807.646545,929.806091 
	C805.051147,927.878296 806.367249,926.013306 806.804321,924.440674 
	C808.762024,917.397156 811.246155,910.482971 812.877563,903.370056 
	C815.023132,894.015381 818.209717,884.664429 812.333801,875.140015 
	C810.604065,872.336121 811.128723,868.016113 810.994385,864.377075 
	C810.625000,854.372986 808.299194,844.632812 807.185547,834.731506 
	C806.955994,832.690613 806.822632,829.950989 803.503784,830.716064 
	C798.944275,831.767090 794.564331,830.325317 790.126770,829.933899 
	C784.369934,829.426147 783.991028,829.636780 784.361572,835.620605 
	C784.998230,845.898438 785.538208,856.182495 786.218872,866.457275 
	C786.465332,870.177917 784.864563,874.795227 790.483032,876.288330 
	C790.860352,876.388611 791.155579,877.409302 791.208984,878.026184 
	C792.358459,891.294189 795.921448,904.180176 797.517090,918.069702 
M116.720703,354.661163 
	C120.036102,361.148407 120.826164,368.557220 125.085625,374.823700 
	C132.650848,385.953491 135.233154,398.790436 133.677048,411.966431 
	C132.465805,422.222382 138.580948,428.702515 143.544601,435.938629 
	C145.155975,438.287720 147.487839,437.754211 148.579376,435.132721 
	C151.866608,427.237976 155.010345,419.313293 150.500107,410.725372 
	C148.290604,406.518219 147.154022,401.922241 148.195633,397.199249 
	C149.425873,391.620972 148.257019,386.300385 147.240219,380.907654 
	C146.470474,376.825378 145.445724,372.743805 145.187775,368.621063 
	C144.349716,355.226593 139.570267,343.049042 134.007126,331.113159 
	C132.051056,326.916351 128.912415,326.263855 125.009674,328.794495 
	C122.865906,330.184601 121.180580,332.094879 120.308464,334.483429 
	C118.022453,340.744446 116.708145,347.221771 116.720703,354.661163 
M472.242554,462.674164 
	C469.731476,461.561890 467.969086,461.937103 466.585266,464.665710 
	C464.919037,467.951141 462.365540,470.558350 459.285461,472.730042 
	C455.567291,475.351654 454.887817,479.700134 457.383270,483.683167 
	C459.181702,486.553619 461.527374,489.114868 464.790527,490.141907 
	C477.551025,494.158051 489.506897,500.011139 501.384064,506.013306 
	C504.860748,507.770264 506.440674,506.595245 508.067352,503.690521 
	C511.320587,497.881073 514.669922,492.119324 518.178833,486.461395 
	C520.366638,482.933563 519.866699,480.963287 515.845947,479.265564 
	C501.729462,473.304962 487.351990,468.057343 472.242554,462.674164 
M306.281525,398.154755 
	C310.868866,406.388885 318.518280,410.720215 326.937988,413.723419 
	C338.154755,417.724365 340.989777,416.715851 346.442932,406.945282 
	C351.346313,398.159882 348.728516,388.031128 339.917603,382.959381 
	C334.644104,379.923920 328.691895,378.897827 322.962036,377.221497 
	C312.131714,374.052887 302.368011,369.493378 297.411804,358.346436 
	C296.999115,357.418213 296.484711,356.129669 294.282837,356.344086 
	C294.995239,371.009918 299.460968,384.534058 306.281525,398.154755 
M987.328674,717.943054 
	C987.818481,711.940979 986.526367,706.497253 982.780457,701.611877 
	C973.320801,689.274841 951.797913,690.594238 945.084473,703.966980 
	C940.702148,712.696411 941.347168,721.155945 947.200806,728.773682 
	C952.832581,736.102722 960.969360,737.747498 969.624268,736.138855 
	C979.230896,734.353394 985.218811,728.476929 987.328674,717.943054 
M648.658508,559.015503 
	C661.603455,563.950317 670.706909,561.289795 677.602539,550.556702 
	C682.649231,542.701599 681.821045,533.320618 675.359375,525.148132 
	C670.150391,518.559998 660.445984,515.800293 652.463928,518.378784 
	C643.831604,521.167358 638.780029,527.119019 637.386658,535.846191 
	C635.823303,545.638489 639.225159,553.481018 648.658508,559.015503 
M817.219360,906.265320 
	C816.936462,912.713135 816.623230,919.159790 816.394287,925.609558 
	C816.343750,927.035095 816.013611,928.641235 817.845215,929.473267 
	C823.385559,931.990112 834.527161,925.491211 834.566650,919.368164 
	C834.606445,913.202698 835.063232,907.085022 835.891724,901.013306 
	C836.404114,897.258362 837.390869,893.672485 832.622986,890.285583 
	C839.185608,890.085876 843.324280,887.267395 847.437988,884.488953 
	C851.761292,881.568970 853.403015,873.559875 850.843872,868.710388 
	C848.322388,863.932251 842.581909,861.958923 837.047546,864.209900 
	C830.201050,866.994507 824.623169,871.604736 821.726929,878.356750 
	C818.072693,886.876038 817.452576,896.127380 817.219360,906.265320 
M770.622131,997.383362 
	C772.973633,989.879395 778.069946,983.929993 782.685242,977.415588 
	C781.492249,976.862610 780.935730,976.444275 780.327515,976.345947 
	C759.924744,973.050293 735.411926,992.679260 739.145996,1016.670288 
	C739.563354,1019.351257 740.992981,1019.875488 743.208862,1019.896973 
	C749.522827,1019.958191 755.842468,1019.815125 762.123779,1020.742004 
	C765.822937,1021.287903 767.724243,1019.779602 767.777649,1015.824219 
	C767.858459,1009.833923 768.545593,1003.897034 770.622131,997.383362 
M853.080200,926.202332 
	C851.549744,914.581360 850.019226,902.960327 848.496338,891.397400 
	C843.096069,907.736511 840.238281,924.412964 843.367371,941.685181 
	C844.164062,946.082764 844.120789,950.633423 845.882019,954.861938 
	C847.635254,959.071289 851.509033,958.902893 854.755798,958.517944 
	C858.135925,958.117310 856.886047,954.722961 856.531616,952.742126 
	C855.008972,944.233215 854.313660,935.633911 853.080200,926.202332 
M836.901672,824.519836 
	C837.845032,822.882812 839.138123,821.370178 839.104004,818.969604 
	C837.628235,819.441040 836.494629,819.691528 835.456909,820.156372 
	C832.740173,821.373352 830.049072,822.650818 827.376953,823.963501 
	C820.218567,827.479919 819.965637,828.972534 825.536499,834.843628 
	C826.075623,835.411804 826.817444,835.787720 827.612671,836.358765 
	C831.975830,833.563110 834.131409,829.240417 836.901672,824.519836 
z"/>
<path fill="#000000" opacity="1.000000" stroke="none" 
	d="
M989.751099,1009.256287 
	C990.918640,1009.918091 991.303528,1010.940247 990.319031,1011.261475 
	C987.350464,1012.230286 984.301758,1013.015015 981.231018,1013.583008 
	C979.690063,1013.868042 978.751465,1012.639404 978.642578,1011.156189 
	C978.533813,1009.675232 979.652771,1009.116089 980.924377,1009.098755 
	C983.751770,1009.060364 986.580688,1009.134033 989.751099,1009.256287 
z"/>
<path fill="#000000" opacity="1.000000" stroke="none" 
	d="
M777.000000,359.935791 
	C819.797424,360.186493 862.094727,360.492706 904.392517,360.606506 
	C908.775513,360.618317 910.199402,362.051483 910.168701,366.368652 
	C910.016846,387.691376 910.021973,409.016266 910.161621,430.339142 
	C910.189941,434.664795 908.626892,436.195282 904.316833,436.186951 
	C852.506714,436.086975 800.696228,436.075623 748.886108,436.157440 
	C744.368469,436.164581 742.741699,434.569214 742.775208,430.001373 
	C742.928772,409.011993 742.803467,388.020630 742.809204,367.029999 
	C742.810974,360.516693 743.252380,360.067047 750.011658,360.005310 
	C758.840576,359.924683 767.670532,359.954163 777.000000,359.935791 
M779.059570,403.394470 
	C782.704529,401.157013 786.509277,391.206970 785.073669,387.364868 
	C784.117554,384.805939 782.324951,384.915619 780.302490,386.190002 
	C778.682861,387.210571 777.636902,389.269073 775.276978,388.964569 
	C770.776794,388.384003 769.550354,390.576477 769.714600,394.794495 
	C770.002991,402.201294 769.933472,402.329834 779.059570,403.394470 
z"/>
</svg>